<svg width="25" height="24" viewBox="0 0 25 24" fill="none" xmlns="http://www.w3.org/2000/svg">
<path d="M20.533 10.3559H12.206V13.8069H16.998C16.552 15.9999 14.685 17.2599 12.206 17.2599C11.5123 17.2611 10.8253 17.1253 10.1842 16.8604C9.54312 16.5954 8.96065 16.2066 8.4702 15.716C7.97975 15.2255 7.59097 14.6429 7.32615 14.0018C7.06134 13.3607 6.9257 12.6736 6.92701 11.9799C6.92583 11.2863 7.06156 10.5993 7.32644 9.95832C7.59131 9.31731 7.98012 8.73488 8.47055 8.24445C8.96099 7.75401 9.54341 7.36521 10.1844 7.10033C10.8254 6.83546 11.5124 6.69972 12.206 6.70091C13.465 6.70091 14.603 7.14791 15.496 7.87891L18.096 5.27991C16.512 3.89891 14.481 3.04691 12.206 3.04691C11.0319 3.04374 9.86873 3.27266 8.78338 3.72052C7.69802 4.16837 6.71189 4.82632 5.88166 5.65655C5.05143 6.48678 4.39348 7.47292 3.94562 8.55827C3.49777 9.64362 3.26885 10.8068 3.27201 11.9809C3.26845 13.1551 3.4971 14.3185 3.94481 15.404C4.39253 16.4895 5.05046 17.4758 5.88077 18.3061C6.71108 19.1365 7.69737 19.7944 8.78291 20.2421C9.86844 20.6898 11.0318 20.9185 12.206 20.9149C16.673 20.9149 20.735 17.6659 20.735 11.9809C20.735 11.4529 20.654 10.8839 20.533 10.3559Z" fill="white"/>
</svg>
