<svg width="24" height="25" viewBox="0 0 24 25" fill="none" xmlns="http://www.w3.org/2000/svg">
<path d="M18.3 14.3C19.0161 14.3 19.7028 14.5845 20.2092 15.0908C20.7155 15.5972 21 16.2839 21 17V17.6435C21 20.8628 17.211 23.3 12 23.3C6.789 23.3 3 20.9897 3 17.6435V17C3 16.2839 3.28446 15.5972 3.79081 15.0908C4.29716 14.5845 4.98392 14.3 5.7 14.3H18.3ZM18.3 15.65H5.7C5.36455 15.65 5.04111 15.7749 4.7927 16.0003C4.5443 16.2258 4.38873 16.5356 4.3563 16.8695L4.35 17V17.6435C4.35 20.0501 7.4001 21.95 12 21.95C16.4334 21.95 19.5195 20.0555 19.6464 17.7884L19.65 17.6435V17C19.65 16.6646 19.5251 16.3411 19.2997 16.0927C19.0742 15.8443 18.7644 15.6887 18.4305 15.6563L18.3 15.65ZM12 1.70001C12.7091 1.70001 13.4113 1.83969 14.0665 2.11106C14.7216 2.38244 15.3169 2.7802 15.8184 3.28164C16.3198 3.78307 16.7176 4.37836 16.9889 5.03352C17.2603 5.68868 17.4 6.39087 17.4 7.10001C17.4 7.80915 17.2603 8.51134 16.9889 9.1665C16.7176 9.82166 16.3198 10.417 15.8184 10.9184C15.3169 11.4198 14.7216 11.8176 14.0665 12.089C13.4113 12.3603 12.7091 12.5 12 12.5C10.5678 12.5 9.19432 11.9311 8.18162 10.9184C7.16893 9.90569 6.6 8.53218 6.6 7.10001C6.6 5.66784 7.16893 4.29433 8.18162 3.28164C9.19432 2.26894 10.5678 1.70001 12 1.70001ZM12 3.05001C10.9259 3.05001 9.89574 3.47671 9.13622 4.23623C8.3767 4.99575 7.95 6.02589 7.95 7.10001C7.95 8.17414 8.3767 9.20427 9.13622 9.96379C9.89574 10.7233 10.9259 11.15 12 11.15C13.0741 11.15 14.1043 10.7233 14.8638 9.96379C15.6233 9.20427 16.05 8.17414 16.05 7.10001C16.05 6.02589 15.6233 4.99575 14.8638 4.23623C14.1043 3.47671 13.0741 3.05001 12 3.05001Z" fill="#181510"/>
</svg>
